<?xml version="1.0" standalone="no"?>
<svg xmlns:xlink="http://www.w3.org/1999/xlink" id="wave" style="transform:rotate(0deg); transition: 0.3s" viewBox="0 0 1440 490" version="1.1" xmlns="http://www.w3.org/2000/svg"><defs><linearGradient id="sw-gradient-0" x1="0" x2="0" y1="1" y2="0"><stop stop-color="rgba(251, 251, 251, 1)" offset="0%"/><stop stop-color="rgba(251, 251, 251, 1)" offset="100%"/></linearGradient></defs><path style="transform:translate(0, 0px); opacity:1" fill="url(#sw-gradient-0)" d="M0,245L120,236.8C240,229,480,212,720,220.5C960,229,1200,261,1440,285.8C1680,310,1920,327,2160,326.7C2400,327,2640,310,2880,294C3120,278,3360,261,3600,253.2C3840,245,4080,245,4320,261.3C4560,278,4800,310,5040,343C5280,376,5520,408,5760,424.7C6000,441,6240,441,6480,416.5C6720,392,6960,343,7200,294C7440,245,7680,196,7920,179.7C8160,163,8400,180,8640,155.2C8880,131,9120,65,9360,89.8C9600,114,9840,229,10080,302.2C10320,376,10560,408,10800,416.5C11040,425,11280,408,11520,334.8C11760,261,12000,131,12240,65.3C12480,0,12720,0,12960,16.3C13200,33,13440,65,13680,130.7C13920,196,14160,294,14400,343C14640,392,14880,392,15120,383.8C15360,376,15600,359,15840,310.3C16080,261,16320,180,16560,138.8C16800,98,17040,98,17160,98L17280,98L17280,490L17160,490C17040,490,16800,490,16560,490C16320,490,16080,490,15840,490C15600,490,15360,490,15120,490C14880,490,14640,490,14400,490C14160,490,13920,490,13680,490C13440,490,13200,490,12960,490C12720,490,12480,490,12240,490C12000,490,11760,490,11520,490C11280,490,11040,490,10800,490C10560,490,10320,490,10080,490C9840,490,9600,490,9360,490C9120,490,8880,490,8640,490C8400,490,8160,490,7920,490C7680,490,7440,490,7200,490C6960,490,6720,490,6480,490C6240,490,6000,490,5760,490C5520,490,5280,490,5040,490C4800,490,4560,490,4320,490C4080,490,3840,490,3600,490C3360,490,3120,490,2880,490C2640,490,2400,490,2160,490C1920,490,1680,490,1440,490C1200,490,960,490,720,490C480,490,240,490,120,490L0,490Z"/></svg>